<?xml version="1.0" encoding="utf-8"?>
<!-- Generator: Adobe Illustrator 24.0.1, SVG Export Plug-In . SVG Version: 6.00 Build 0)  -->
<svg version="1.1" id="Layer_1" xmlns="http://www.w3.org/2000/svg" xmlns:xlink="http://www.w3.org/1999/xlink" x="0px" y="0px"
	 viewBox="0 0 24 24" style="enable-background:new 0 0 24 24;" xml:space="preserve">
<title>Netlify icon</title>
<path d="M16.93,8.52c0.11,0.06,0.22,0.14,0.3,0.23l2.35-1.05l-2.19-2.17L16.9,8.49L16.93,8.52z M12.06,6.55
	c0.11,0.17,0.19,0.37,0.21,0.57l3.5,1.48c0.11-0.08,0.23-0.14,0.36-0.18l0.57-3.55l-2.13-2.23l-2.51,3.85
	C12.06,6.49,12.06,6.55,12.06,6.55z M23.99,12.04l-3.75-3.75L17.7,9.33l6.26,2.66C23.96,11.99,24.01,12.04,23.99,12.04z
	 M23.37,12.64l-6.01-2.57c-0.17,0.22-0.42,0.37-0.7,0.41l-0.65,3.96c0.19,0.19,0.3,0.46,0.3,0.73l3.63,0.76l3.33-3.31v-0.06
	L23.37,12.64z M15.4,9.25l-3.27-1.39c-0.23,0.35-0.63,0.56-1.04,0.54h-0.2l-2.7,4.18l7.22-3.13v0.01c-0.01-0.06-0.01-0.11,0-0.17
	C15.41,9.28,15.41,9.26,15.4,9.25z M19.37,16.56l-3.19-0.66c-0.12,0.15-0.28,0.27-0.46,0.34l-0.76,4.72l4.44-4.4
	c0,0-0.01,0.02-0.02,0.02V16.56z M14.9,16.23c-0.31-0.13-0.53-0.39-0.62-0.71L8.33,14.3l-0.08,0.14l5.4,7.81l0.32-0.32l0.92-5.67
	c0,0,0.03,0.02,0.01,0.01V16.23z M8.46,13.58l5.88,1.21c0.17-0.3,0.48-0.49,0.82-0.52l0.64-3.89l-0.14-0.11l-7.31,3.13
	C8.39,13.45,8.43,13.52,8.46,13.58z M5.99,14.56l-0.12-0.12l-2.54,1.04l1.23,1.22l1.4-2.17L5.99,14.56z M7.66,14.96
	c-0.18,0.08-0.37,0.12-0.56,0.12c-0.15,0-0.31-0.02-0.45-0.07l-1.54,2.24l6.76,6.7l1.19-1.18L7.66,14.96z M6.71,12.32
	c0.1-0.01,0.21-0.01,0.31,0c0.11-0.01,0.23-0.01,0.34,0l2.73-4.25C9.89,7.85,9.77,7.55,9.77,7.25c-0.01-0.09-0.01-0.18,0-0.27
	L6.45,5.44l-2.67,2.6L6.71,12.32z M7.02,4.92l3.24,1.38C10.49,6.1,10.78,6,11.09,6.01c0.13,0,0.27,0.02,0.4,0.06l2.53-3.95
	l-2.09-2.09L7.02,4.85C7.02,4.85,7.01,4.91,7.02,4.92z M5.81,13.08c0.06-0.12,0.15-0.23,0.24-0.33L3.28,8.61L0,11.8L5.81,13.08
	L5.81,13.08z M5.54,13.78l-5.01-1.05l2.2,2.23l2.78-1.18L5.54,13.78z"/>
</svg>
