<?xml version="1.0" encoding="utf-8"?>
<!-- Generator: Adobe Illustrator 24.0.1, SVG Export Plug-In . SVG Version: 6.00 Build 0)  -->
<svg version="1.1" id="Layer_1" xmlns="http://www.w3.org/2000/svg" xmlns:xlink="http://www.w3.org/1999/xlink" x="0px" y="0px"
	 viewBox="0 0 417 70" style="enable-background:new 0 0 417 70;" xml:space="preserve">
<style type="text/css">
	.st0{fill:#FCA430;}
	.st1{fill:#FF6D33;}
	.st2{fill:#6CC1BF;}
</style>
<g>
	<path class="st0" d="M159.1,42.68c0,2.31-0.5,4.39-1.49,6.22c-1,1.83-2.34,3.39-4.04,4.68c-1.69,1.29-3.69,2.29-5.97,2.99
		c-2.29,0.7-4.75,1.05-7.39,1.05c-2.58,0-5.23-0.27-7.95-0.81c-2.72-0.54-5.21-1.34-7.47-2.42l1.45-5.89
		c1.99,0.92,4.18,1.67,6.58,2.26c2.39,0.59,4.8,0.89,7.22,0.89c3.5,0,6.32-0.74,8.48-2.22c2.15-1.48,3.23-3.62,3.23-6.42
		c0-1.56-0.31-2.89-0.93-4c-0.62-1.1-1.47-2.1-2.54-2.99c-1.08-0.89-2.33-1.68-3.75-2.38c-1.43-0.7-2.95-1.43-4.56-2.18
		c-1.83-0.86-3.59-1.76-5.29-2.7c-1.69-0.94-3.19-2.02-4.48-3.23c-1.29-1.21-2.33-2.58-3.11-4.12c-0.78-1.53-1.17-3.32-1.17-5.37
		c0-2.31,0.42-4.36,1.25-6.13c0.83-1.78,2-3.26,3.51-4.44c1.51-1.18,3.31-2.07,5.41-2.66c2.1-0.59,4.41-0.89,6.94-0.89
		c2.58,0,5.1,0.3,7.55,0.89c2.45,0.59,4.59,1.37,6.42,2.34l-1.37,5.89c-1.72-0.91-3.69-1.67-5.89-2.26
		c-2.21-0.59-4.44-0.89-6.7-0.89c-6.51,0-9.77,2.53-9.77,7.59c0,1.13,0.16,2.11,0.48,2.95c0.32,0.84,0.85,1.61,1.57,2.34
		c0.73,0.73,1.69,1.43,2.91,2.1c1.21,0.67,2.68,1.44,4.4,2.3c1.72,0.86,3.55,1.79,5.49,2.78c1.94,1,3.71,2.18,5.33,3.55
		c1.61,1.37,2.96,2.97,4.04,4.8C158.56,38.14,159.1,40.26,159.1,42.68z"/>
	<path class="st0" d="M163.7,17.9h6.94V7.98h7.26v9.93h12.75v5.89h-12.75v19.78c0,1.13,0.08,2.19,0.24,3.19
		c0.16,1,0.46,1.84,0.89,2.54c0.43,0.7,1.02,1.25,1.78,1.65c0.75,0.4,1.75,0.61,2.99,0.61c2.26,0,4.3-0.35,6.13-1.05l0.65,5.49
		c-0.86,0.38-2.09,0.71-3.67,1.01c-1.59,0.3-3.14,0.44-4.64,0.44c-2.1,0-3.87-0.34-5.33-1.01c-1.45-0.67-2.65-1.61-3.59-2.83
		c-0.94-1.21-1.63-2.65-2.06-4.32c-0.43-1.67-0.65-3.5-0.65-5.49V23.8h-6.94V17.9z"/>
	<path class="st0" d="M221.33,51.8c-0.59,0.7-1.32,1.39-2.18,2.06c-0.86,0.67-1.84,1.28-2.95,1.82c-1.1,0.54-2.31,0.97-3.63,1.29
		c-1.32,0.32-2.7,0.48-4.16,0.48c-1.61,0-3.1-0.26-4.44-0.77c-1.35-0.51-2.5-1.22-3.47-2.14c-0.97-0.91-1.74-2.04-2.3-3.39
		c-0.56-1.34-0.85-2.82-0.85-4.44c0-3.55,1.25-6.24,3.75-8.07c2.5-1.83,5.85-2.88,10.05-3.15c1.72-0.11,3.43-0.19,5.13-0.24
		c1.69-0.05,3.32-0.08,4.88-0.08v-1.7c0-3.28-0.7-5.85-2.1-7.71c-1.4-1.86-3.71-2.78-6.94-2.78c-1.88,0-3.67,0.24-5.37,0.73
		c-1.69,0.48-3.32,1.16-4.88,2.02l-1.69-5.33c2.04-1.24,4.13-2.1,6.26-2.58c2.12-0.48,4.45-0.73,6.98-0.73
		c4.57,0,8.22,1.4,10.94,4.2c2.72,2.8,4.08,6.81,4.08,12.03v23.33h-7.1V51.8z M210.52,52.13c2.1,0,4.06-0.47,5.89-1.41
		c1.83-0.94,3.42-2.14,4.76-3.59v-7.18c-1.61,0.11-3.12,0.22-4.52,0.32c-1.4,0.11-2.8,0.24-4.2,0.4c-1.13,0.11-2.19,0.3-3.19,0.56
		c-1,0.27-1.86,0.63-2.58,1.09c-0.73,0.46-1.29,1.05-1.69,1.78c-0.4,0.73-0.61,1.6-0.61,2.62c0,1.83,0.54,3.19,1.61,4.08
		C207.07,51.68,208.58,52.13,210.52,52.13z"/>
	<path class="st0" d="M256.2,17.02c2.15,0,4.17,0.19,6.05,0.57c1.88,0.38,3.5,0.9,4.84,1.56l-1.05,5.62
		c-1.4-0.59-2.89-1.05-4.48-1.37c-1.59-0.32-3.16-0.48-4.72-0.48c-4.36,0-7.57,1.33-9.65,3.98c-2.07,2.66-3.11,6.1-3.11,10.34
		c0,4.24,1.04,7.69,3.11,10.34c2.07,2.66,5.29,3.98,9.65,3.98c1.56,0,3.13-0.16,4.72-0.48c1.59-0.32,3.08-0.78,4.48-1.37l1.05,5.62
		c-1.35,0.66-3.04,1.17-5.09,1.55c-2.05,0.38-3.98,0.57-5.81,0.57c-3.23,0-6.05-0.54-8.48-1.62c-2.42-1.08-4.44-2.55-6.05-4.41
		c-1.61-1.86-2.83-4.02-3.63-6.47c-0.81-2.45-1.21-5.03-1.21-7.72c0-2.7,0.4-5.27,1.21-7.72c0.81-2.45,2.02-4.61,3.63-6.47
		c1.61-1.86,3.63-3.33,6.05-4.41C250.15,17.55,252.97,17.02,256.2,17.02z"/>
	<path class="st0" d="M275.98,56.65V-0.34h7.26v36.56l15.5-18.32h8.39l-16.38,19.05l17.76,19.69h-8.8l-16.47-19.21v19.21H275.98z"/>
</g>
<g>
	<path class="st1" d="M3,56.82V3.69h30.27v5.98H10.43v18.19H32.3v5.98H10.43v22.97H3z"/>
	<path class="st1" d="M74.27,18.53v38.29h-6.94v-5.58c-1.4,1.86-3.13,3.39-5.21,4.59c-2.07,1.2-4.45,1.79-7.14,1.79
		c-2.42,0-4.48-0.51-6.17-1.52c-1.69-1.01-3.08-2.38-4.16-4.11c-1.08-1.73-1.86-3.74-2.34-6.02c-0.48-2.29-0.73-4.71-0.73-7.26
		V18.53h7.26v19.94c0,1.97,0.13,3.76,0.4,5.38c0.27,1.62,0.73,3.02,1.37,4.19c0.65,1.17,1.52,2.09,2.62,2.75c1.1,0.67,2.49,1,4.16,1
		c2.15,0,4.04-0.56,5.65-1.67c1.61-1.12,2.93-2.29,3.96-3.51V18.53H74.27z"/>
</g>
<g>
	<path class="st2" d="M326.98,51.29c-0.24,2.07-0.73,4.12-1.45,6.13c-0.73,2.02-1.72,4.04-2.99,6.05c-1.26,2.02-2.92,4.1-4.96,6.26
		l-5.17-4.12c2.8-3.18,4.76-6.31,5.89-9.4c1.13-3.09,1.69-6.52,1.69-10.29V3.23h7.43v41.49C327.37,47.03,327.22,49.22,326.98,51.29z
		"/>
	<path class="st2" d="M354.46,17.43c2.47,0,4.64,0.4,6.5,1.21c1.86,0.81,3.42,1.91,4.68,3.31c1.26,1.4,2.21,3.05,2.82,4.96
		c0.62,1.91,0.93,3.97,0.93,6.17c0,2.21-0.27,4.39-0.81,6.54h-24.46c0.05,1.88,0.32,3.58,0.81,5.08c0.48,1.51,1.22,2.81,2.22,3.91
		c0.99,1.1,2.29,1.95,3.87,2.54c1.59,0.59,3.51,0.89,5.77,0.89c2.1,0,4.08-0.21,5.93-0.65c1.86-0.43,3.56-0.97,5.13-1.61l0.97,5.41
		c-1.72,0.81-3.73,1.44-6.01,1.9c-2.29,0.46-4.64,0.69-7.06,0.69c-3.23,0-6.04-0.52-8.43-1.57c-2.4-1.05-4.37-2.47-5.93-4.28
		c-1.56-1.8-2.73-3.91-3.51-6.34c-0.78-2.42-1.17-5.03-1.17-7.83c0-2.8,0.4-5.43,1.21-7.91c0.81-2.47,1.98-4.64,3.51-6.5
		c1.53-1.86,3.4-3.31,5.61-4.36C349.24,17.96,351.72,17.43,354.46,17.43z M354.22,22.84c-1.56,0-2.93,0.3-4.12,0.89
		c-1.18,0.59-2.21,1.4-3.07,2.42c-0.86,1.02-1.53,2.22-2.02,3.59c-0.48,1.37-0.78,2.81-0.89,4.32h18.24
		c0.16-1.51,0.13-2.95-0.08-4.32c-0.22-1.37-0.65-2.57-1.29-3.59c-0.65-1.02-1.53-1.83-2.66-2.42
		C357.2,23.14,355.83,22.84,354.22,22.84z"/>
	<path class="st2" d="M378.59,56.98V18.24h6.94v5.65c1.45-2.04,3.2-3.63,5.25-4.76c2.04-1.13,4.41-1.69,7.1-1.69
		c2.42,0,4.49,0.51,6.22,1.53c1.72,1.02,3.15,2.41,4.28,4.16c1.13,1.75,1.95,3.78,2.46,6.09c0.51,2.31,0.77,4.76,0.77,7.34v20.42
		h-7.26V36.81c0-1.99-0.16-3.81-0.48-5.45c-0.32-1.64-0.83-3.05-1.53-4.24c-0.7-1.18-1.61-2.11-2.74-2.79
		c-1.13-0.67-2.5-1.01-4.12-1.01c-2.15,0-4.05,0.57-5.69,1.7c-1.64,1.13-2.95,2.31-3.91,3.55v28.41H378.59z"/>
</g>
<rect x="108.47" y="1.33" class="st1" width="7.21" height="56.29"/>
<rect x="86.3" y="1.33" class="st1" width="7.21" height="56.29"/>
</svg>
