<?xml version="1.0" encoding="utf-8"?>
<!-- Generator: Adobe Illustrator 24.0.1, SVG Export Plug-In . SVG Version: 6.00 Build 0)  -->
<svg version="1.1" id="Layer_1" xmlns="http://www.w3.org/2000/svg" xmlns:xlink="http://www.w3.org/1999/xlink" x="0px" y="0px"
	 viewBox="0 0 417 116" style="enable-background:new 0 0 417 116;" xml:space="preserve">
<style type="text/css">
	.st0{fill:#FCA430;}
	.st1{fill:#FF6D33;}
	.st2{fill:#6CC1BF;}
	.st3{fill:#C3403E;}
	.st4{fill:#38858B;}
	.st5{fill:#E8C25C;}
	.st6{fill:#465D84;}
	.st7{fill:#ABCBAE;}
	.st8{fill:#78869B;}
</style>
<g>
	<path class="st0" d="M182.47,73.19c0,2.1-0.45,3.98-1.36,5.64c-0.9,1.66-2.12,3.08-3.66,4.25c-1.54,1.17-3.35,2.08-5.42,2.71
		c-2.08,0.63-4.31,0.95-6.7,0.95c-2.34,0-4.75-0.24-7.22-0.73c-2.47-0.49-4.72-1.22-6.78-2.2l1.32-5.35
		c1.81,0.83,3.8,1.51,5.97,2.05c2.17,0.54,4.36,0.81,6.56,0.81c3.17,0,5.74-0.67,7.69-2.01c1.95-1.34,2.93-3.28,2.93-5.82
		c0-1.42-0.28-2.62-0.84-3.63c-0.56-1-1.33-1.9-2.31-2.71c-0.98-0.81-2.11-1.53-3.41-2.16c-1.29-0.63-2.67-1.29-4.14-1.98
		c-1.66-0.78-3.26-1.6-4.8-2.45c-1.54-0.85-2.89-1.83-4.07-2.93c-1.17-1.1-2.11-2.34-2.82-3.74c-0.71-1.39-1.06-3.01-1.06-4.87
		c0-2.1,0.38-3.96,1.14-5.57c0.76-1.61,1.82-2.95,3.19-4.03c1.37-1.07,3-1.88,4.91-2.42c1.9-0.54,4-0.81,6.3-0.81
		c2.34,0,4.63,0.27,6.85,0.81c2.22,0.54,4.16,1.25,5.82,2.12l-1.25,5.35c-1.56-0.83-3.35-1.51-5.35-2.05
		c-2-0.54-4.03-0.81-6.08-0.81c-5.91,0-8.86,2.3-8.86,6.89c0,1.03,0.15,1.92,0.44,2.67c0.29,0.76,0.77,1.47,1.43,2.12
		c0.66,0.66,1.54,1.29,2.64,1.9c1.1,0.61,2.43,1.31,3.99,2.09c1.56,0.78,3.22,1.62,4.98,2.53c1.76,0.9,3.37,1.98,4.83,3.22
		c1.46,1.25,2.68,2.7,3.66,4.36C181.98,69.06,182.47,70.99,182.47,73.19z"/>
	<path class="st0" d="M186.64,50.7h6.3v-9.01h6.59v9.01h11.57v5.35h-11.57v17.95c0,1.03,0.07,1.99,0.22,2.89
		c0.15,0.9,0.41,1.67,0.81,2.31c0.39,0.64,0.93,1.14,1.61,1.5c0.68,0.37,1.59,0.55,2.71,0.55c2.05,0,3.91-0.32,5.57-0.95l0.59,4.98
		c-0.78,0.34-1.89,0.65-3.33,0.92c-1.44,0.27-2.85,0.4-4.21,0.4c-1.9,0-3.52-0.31-4.83-0.92c-1.32-0.61-2.41-1.46-3.26-2.56
		c-0.86-1.1-1.48-2.4-1.87-3.92c-0.39-1.51-0.59-3.17-0.59-4.98V56.05h-6.3V50.7z"/>
	<path class="st0" d="M238.94,81.46c-0.54,0.64-1.2,1.26-1.98,1.87c-0.78,0.61-1.67,1.16-2.67,1.65c-1,0.49-2.1,0.88-3.3,1.17
		c-1.2,0.29-2.45,0.44-3.77,0.44c-1.46,0-2.81-0.23-4.03-0.7c-1.22-0.46-2.27-1.11-3.15-1.94c-0.88-0.83-1.57-1.86-2.09-3.08
		c-0.51-1.22-0.77-2.56-0.77-4.03c0-3.22,1.14-5.66,3.41-7.32c2.27-1.66,5.31-2.61,9.12-2.86c1.56-0.1,3.11-0.17,4.65-0.22
		c1.54-0.05,3.01-0.07,4.43-0.07v-1.54c0-2.98-0.64-5.31-1.9-6.99c-1.27-1.68-3.37-2.53-6.3-2.53c-1.71,0-3.33,0.22-4.87,0.66
		c-1.54,0.44-3.02,1.05-4.43,1.83l-1.54-4.83c1.86-1.12,3.75-1.9,5.68-2.34c1.93-0.44,4.04-0.66,6.34-0.66
		c4.15,0,7.46,1.27,9.92,3.81c2.47,2.54,3.7,6.18,3.7,10.91v21.17h-6.45V81.46z M229.13,81.76c1.9,0,3.69-0.43,5.35-1.28
		c1.66-0.85,3.1-1.94,4.32-3.26V70.7c-1.46,0.1-2.83,0.2-4.1,0.29c-1.27,0.1-2.54,0.22-3.81,0.37c-1.03,0.1-1.99,0.27-2.89,0.51
		c-0.9,0.24-1.68,0.57-2.34,0.99c-0.66,0.42-1.17,0.95-1.54,1.61c-0.37,0.66-0.55,1.45-0.55,2.38c0,1.66,0.49,2.89,1.46,3.7
		C226,81.35,227.37,81.76,229.13,81.76z"/>
	<path class="st0" d="M270.58,49.89c1.95,0,3.78,0.17,5.49,0.52c1.71,0.35,3.17,0.82,4.4,1.41l-0.95,5.1
		c-1.27-0.54-2.63-0.95-4.07-1.25c-1.44-0.29-2.87-0.44-4.28-0.44c-3.96,0-6.87,1.21-8.75,3.62c-1.88,2.41-2.82,5.54-2.82,9.39
		c0,3.85,0.94,6.98,2.82,9.39c1.88,2.41,4.8,3.62,8.75,3.62c1.42,0,2.84-0.15,4.28-0.44c1.44-0.29,2.79-0.71,4.07-1.24l0.95,5.1
		c-1.22,0.6-2.76,1.07-4.61,1.41c-1.86,0.35-3.61,0.52-5.27,0.52c-2.93,0-5.49-0.49-7.69-1.47c-2.2-0.98-4.03-2.31-5.49-4
		c-1.46-1.69-2.56-3.65-3.3-5.87c-0.73-2.23-1.1-4.56-1.1-7.01c0-2.45,0.37-4.78,1.1-7.01c0.73-2.23,1.83-4.18,3.3-5.87
		c1.46-1.69,3.3-3.02,5.49-4C265.09,50.38,267.65,49.89,270.58,49.89z"/>
	<path class="st0" d="M288.53,85.86V34.15h6.59v33.18l14.06-16.63h7.62l-14.87,17.29l16.11,17.87h-7.98l-14.94-17.43v17.43H288.53z"
		/>
</g>
<g>
	<path class="st1" d="M40.81,86.01V37.81h27.47v5.43H47.55v16.5H67.4v5.43H47.55v20.85H40.81z"/>
	<path class="st1" d="M105.49,51.27v34.74h-6.3v-5.07c-1.27,1.69-2.84,3.08-4.72,4.16c-1.88,1.09-4.04,1.63-6.48,1.63
		c-2.2,0-4.07-0.46-5.6-1.38c-1.54-0.92-2.8-2.16-3.77-3.73c-0.98-1.57-1.68-3.39-2.12-5.46c-0.44-2.07-0.66-4.27-0.66-6.59V51.27
		h6.59v18.1c0,1.79,0.12,3.41,0.37,4.89c0.24,1.47,0.66,2.74,1.24,3.8c0.59,1.06,1.38,1.89,2.38,2.5c1,0.6,2.26,0.9,3.77,0.9
		c1.95,0,3.66-0.51,5.13-1.52c1.46-1.01,2.66-2.07,3.59-3.18V51.27H105.49z"/>
</g>
<g>
	<path class="st2" d="M334.81,81c-0.22,1.88-0.66,3.74-1.32,5.57c-0.66,1.83-1.56,3.66-2.71,5.49c-1.15,1.83-2.65,3.72-4.5,5.68
		L321.59,94c2.54-2.88,4.32-5.73,5.35-8.53c1.03-2.81,1.54-5.92,1.54-9.34V37.38h6.74v37.65C335.16,77.13,335.03,79.12,334.81,81z"
		/>
	<path class="st2" d="M359.75,50.27c2.25,0,4.21,0.37,5.9,1.1c1.68,0.73,3.1,1.73,4.25,3c1.15,1.27,2,2.77,2.56,4.5
		c0.56,1.73,0.84,3.6,0.84,5.6c0,2-0.24,3.98-0.73,5.93h-22.19c0.05,1.71,0.29,3.25,0.73,4.61c0.44,1.37,1.11,2.55,2.01,3.55
		c0.9,1,2.08,1.77,3.52,2.31c1.44,0.54,3.19,0.81,5.24,0.81c1.9,0,3.7-0.19,5.38-0.59c1.68-0.39,3.23-0.88,4.65-1.46l0.88,4.91
		c-1.56,0.73-3.38,1.31-5.46,1.72c-2.08,0.41-4.21,0.62-6.41,0.62c-2.93,0-5.48-0.48-7.65-1.43c-2.17-0.95-3.97-2.25-5.38-3.88
		c-1.42-1.64-2.48-3.55-3.19-5.75c-0.71-2.2-1.06-4.57-1.06-7.1c0-2.54,0.37-4.93,1.1-7.18c0.73-2.25,1.79-4.21,3.19-5.9
		c1.39-1.68,3.09-3,5.09-3.96C355.01,50.75,357.26,50.27,359.75,50.27z M359.53,55.18c-1.42,0-2.66,0.27-3.74,0.81
		c-1.07,0.54-2,1.27-2.78,2.2c-0.78,0.93-1.39,2.01-1.83,3.26c-0.44,1.24-0.71,2.55-0.81,3.92h16.55c0.15-1.37,0.12-2.67-0.07-3.92
		c-0.2-1.25-0.59-2.33-1.17-3.26c-0.59-0.93-1.39-1.66-2.42-2.2C362.24,55.45,360.99,55.18,359.53,55.18z"/>
	<path class="st2" d="M381.65,86.16V51.01h6.3v5.13c1.32-1.86,2.9-3.3,4.76-4.32c1.86-1.03,4-1.54,6.45-1.54
		c2.2,0,4.08,0.46,5.64,1.39c1.56,0.93,2.86,2.19,3.88,3.77c1.03,1.59,1.77,3.43,2.23,5.53c0.46,2.1,0.7,4.32,0.7,6.67v18.53h-6.59
		V67.85c0-1.81-0.15-3.45-0.44-4.94c-0.29-1.49-0.76-2.77-1.39-3.85c-0.64-1.07-1.46-1.92-2.49-2.53c-1.03-0.61-2.27-0.92-3.74-0.92
		c-1.95,0-3.68,0.51-5.16,1.54c-1.49,1.03-2.67,2.1-3.55,3.22v25.78H381.65z"/>
</g>
<rect x="136.53" y="35.66" class="st1" width="6.55" height="51.08"/>
<rect x="116.4" y="35.66" class="st1" width="6.55" height="51.08"/>
<g>
	<path class="st3" d="M12.31,53.56l-0.09,0.87l-0.04,0.87l-0.04,0.87c-0.01,0.29-0.04,0.58-0.03,0.87l0,1.75
		c-0.01,0.29,0.02,0.58,0.03,0.87l0.04,0.87l0.04,0.87l0.09,0.87l0.09,0.87c0.03,0.29,0.05,0.58,0.1,0.87l0.26,1.73
		c0.04,0.29,0.1,0.57,0.16,0.86l0.18,0.86l-8.09,1.71l-0.21-1.01c-0.07-0.34-0.14-0.67-0.19-1.01l-0.31-2.04
		c-0.06-0.34-0.08-0.68-0.12-1.02l-0.1-1.02l-0.1-1.02l-0.05-1.03l-0.05-1.03c-0.01-0.34-0.04-0.69-0.04-1.03l0-2.06
		c-0.01-0.34,0.02-0.69,0.03-1.03l0.05-1.03l0.06-1.03l0.1-1.03L12.31,53.56z"/>
</g>
<g>
	<path class="st4" d="M28.71,93.25l0.68,0.55c0.23,0.18,0.45,0.37,0.69,0.54l1.41,1.04c0.97,0.65,1.92,1.32,2.94,1.9
		c2,1.19,4.08,2.26,6.25,3.12l-3.11,7.65c-2.56-1.02-5.01-2.27-7.37-3.68c-1.19-0.69-2.32-1.47-3.46-2.24l-1.66-1.22
		c-0.28-0.2-0.54-0.42-0.81-0.64l-0.8-0.65L28.71,93.25z"/>
</g>
<g>
	<path class="st5" d="M19.7,32.72c-2.59,3.88-4.54,8.17-5.84,12.64l-7.94-2.28c1.54-5.28,3.84-10.34,6.9-14.92L19.7,32.72z"/>
</g>
<g>
	<path class="st6" d="M49.5,102.98c2.29,0.41,4.61,0.68,6.94,0.75c2.33,0.05,4.66-0.04,6.98-0.32l1,8.2
		c-2.73,0.33-5.48,0.44-8.23,0.38c-2.75-0.08-5.49-0.4-8.2-0.88L49.5,102.98z"/>
	<path class="st6" d="M49.5,102.98c2.29,0.41,4.61,0.68,6.94,0.75c2.33,0.05,4.66-0.04,6.98-0.32l1,8.2
		c-2.73,0.33-5.48,0.44-8.23,0.38c-2.75-0.08-5.49-0.4-8.2-0.88L49.5,102.98z"/>
</g>
<g>
	<path class="st7" d="M15.69,75.75l0.33,0.77c0.11,0.26,0.21,0.51,0.34,0.76l0.73,1.5c0.11,0.25,0.26,0.49,0.39,0.74l0.4,0.73
		l0.4,0.73l0.44,0.71l0.44,0.71c0.15,0.24,0.29,0.48,0.45,0.7l0.94,1.38c0.15,0.23,0.33,0.45,0.49,0.67l0.5,0.66l0.5,0.66l0.54,0.64
		l-6.37,5.27l-0.63-0.76l-0.6-0.78l-0.59-0.78c-0.2-0.26-0.4-0.52-0.58-0.79l-1.11-1.63c-0.19-0.27-0.36-0.55-0.53-0.83l-0.52-0.84
		l-0.51-0.84l-0.48-0.86l-0.47-0.86c-0.16-0.29-0.32-0.57-0.46-0.87l-0.86-1.77c-0.15-0.29-0.27-0.6-0.4-0.9l-0.39-0.91L15.69,75.75
		z"/>
</g>
<path class="st8" d="M55.07,4c-3.96,0.21-7.89,0.85-11.72,1.9L42.96,6l-0.38,0.12l-0.76,0.24c-0.5,0.16-1.01,0.31-1.51,0.48
	l-1.49,0.55c-0.49,0.18-0.99,0.36-1.48,0.57c-0.97,0.42-1.95,0.81-2.89,1.29l-1.42,0.69l-1.39,0.76c-0.94,0.49-1.82,1.07-2.72,1.61
	c-0.46,0.27-0.88,0.58-1.32,0.87l-1.31,0.9c-1.69,1.26-3.36,2.56-4.9,4.01l5.48,5.98c1.31-1.23,2.73-2.33,4.16-3.41l1.11-0.76
	c0.37-0.25,0.73-0.52,1.12-0.74c0.77-0.46,1.52-0.96,2.31-1.37l1.18-0.65l1.21-0.59c0.8-0.41,1.63-0.74,2.45-1.1
	c0.41-0.19,0.83-0.33,1.25-0.49l1.26-0.47c0.43-0.14,0.86-0.27,1.28-0.4l0.64-0.2l0.32-0.1l0.33-0.08c3.11-0.86,6.32-1.39,9.55-1.59
	V4z"/>
</svg>
