<?xml version="1.0" encoding="utf-8"?>
<!-- Generator: Adobe Illustrator 24.0.1, SVG Export Plug-In . SVG Version: 6.00 Build 0)  -->
<svg version="1.1" id="Layer_1" xmlns:figma="http://www.figma.com/figma/ns"
	 xmlns="http://www.w3.org/2000/svg" xmlns:xlink="http://www.w3.org/1999/xlink" x="0px" y="0px" viewBox="0 0 107.3 77.8"
	 style="enable-background:new 0 0 107.3 77.8;" xml:space="preserve">
<style type="text/css">
	.st0{fill:#FCA430;}
	.st1{fill:#FF6D33;}
	.st2{fill:#6CC1BF;}
	.st3{fill:#C3403E;}
	.st4{fill:#38858B;}
	.st5{fill:#E8C25C;}
	.st6{fill:#465D84;}
	.st7{fill:#ABCBAE;}
	.st8{fill:#78869B;}
</style>
<title>Logo</title>
<g>
	<path class="st0" d="M38.3,34.7c0,0.7-0.2,1.4-0.5,2c-0.3,0.6-0.7,1.1-1.3,1.5c-0.5,0.4-1.2,0.7-1.9,1c-0.7,0.2-1.5,0.3-2.3,0.3
		c-0.8,0-1.7-0.1-2.5-0.3c-0.9-0.2-1.7-0.4-2.4-0.8l0.5-1.9c0.6,0.3,1.3,0.5,2.1,0.7c0.8,0.2,1.5,0.3,2.3,0.3c1.1,0,2-0.2,2.7-0.7
		c0.7-0.5,1-1.2,1-2c0-0.5-0.1-0.9-0.3-1.3c-0.2-0.4-0.5-0.7-0.8-1c-0.3-0.3-0.7-0.5-1.2-0.8c-0.5-0.2-0.9-0.5-1.5-0.7
		c-0.6-0.3-1.1-0.6-1.7-0.9c-0.5-0.3-1-0.6-1.4-1c-0.4-0.4-0.7-0.8-1-1.3c-0.2-0.5-0.4-1.1-0.4-1.7c0-0.7,0.1-1.4,0.4-2
		c0.3-0.6,0.6-1,1.1-1.4c0.5-0.4,1.1-0.7,1.7-0.8c0.7-0.2,1.4-0.3,2.2-0.3c0.8,0,1.6,0.1,2.4,0.3c0.8,0.2,1.5,0.4,2,0.7l-0.4,1.9
		c-0.5-0.3-1.2-0.5-1.9-0.7c-0.7-0.2-1.4-0.3-2.1-0.3c-2.1,0-3.1,0.8-3.1,2.4c0,0.4,0.1,0.7,0.2,0.9c0.1,0.3,0.3,0.5,0.5,0.7
		c0.2,0.2,0.5,0.5,0.9,0.7c0.4,0.2,0.9,0.5,1.4,0.7c0.5,0.3,1.1,0.6,1.7,0.9c0.6,0.3,1.2,0.7,1.7,1.1c0.5,0.4,0.9,0.9,1.3,1.5
		C38.1,33.3,38.3,33.9,38.3,34.7z"/>
	<path class="st0" d="M39.7,26.8h2.2v-3.2h2.3v3.2h4.1v1.9h-4.1V35c0,0.4,0,0.7,0.1,1c0.1,0.3,0.1,0.6,0.3,0.8
		c0.1,0.2,0.3,0.4,0.6,0.5c0.2,0.1,0.6,0.2,1,0.2c0.7,0,1.4-0.1,2-0.3l0.2,1.7c-0.3,0.1-0.7,0.2-1.2,0.3c-0.5,0.1-1,0.1-1.5,0.1
		c-0.7,0-1.2-0.1-1.7-0.3c-0.5-0.2-0.8-0.5-1.1-0.9c-0.3-0.4-0.5-0.8-0.7-1.4c-0.1-0.5-0.2-1.1-0.2-1.7v-6.4h-2.2V26.8z"/>
	<path class="st0" d="M58.1,37.6c-0.2,0.2-0.4,0.4-0.7,0.7c-0.3,0.2-0.6,0.4-0.9,0.6c-0.4,0.2-0.7,0.3-1.2,0.4
		c-0.4,0.1-0.9,0.2-1.3,0.2c-0.5,0-1-0.1-1.4-0.2c-0.4-0.2-0.8-0.4-1.1-0.7c-0.3-0.3-0.6-0.7-0.7-1.1c-0.2-0.4-0.3-0.9-0.3-1.4
		c0-1.1,0.4-2,1.2-2.6c0.8-0.6,1.9-0.9,3.2-1c0.5,0,1.1-0.1,1.6-0.1c0.5,0,1.1,0,1.6,0v-0.5c0-1-0.2-1.9-0.7-2.5
		c-0.4-0.6-1.2-0.9-2.2-0.9c-0.6,0-1.2,0.1-1.7,0.2c-0.5,0.2-1.1,0.4-1.6,0.6l-0.5-1.7c0.7-0.4,1.3-0.7,2-0.8
		c0.7-0.2,1.4-0.2,2.2-0.2c1.5,0,2.6,0.4,3.5,1.3c0.9,0.9,1.3,2.2,1.3,3.8v7.4h-2.3V37.6z M54.6,37.7c0.7,0,1.3-0.1,1.9-0.4
		c0.6-0.3,1.1-0.7,1.5-1.1v-2.3c-0.5,0-1,0.1-1.4,0.1c-0.4,0-0.9,0.1-1.3,0.1c-0.4,0-0.7,0.1-1,0.2c-0.3,0.1-0.6,0.2-0.8,0.3
		c-0.2,0.1-0.4,0.3-0.5,0.6c-0.1,0.2-0.2,0.5-0.2,0.8c0,0.6,0.2,1,0.5,1.3C53.5,37.6,54,37.7,54.6,37.7z"/>
	<path class="st0" d="M69.2,26.5c0.7,0,1.3,0.1,1.9,0.2c0.6,0.1,1.1,0.3,1.5,0.5L72.3,29c-0.4-0.2-0.9-0.3-1.4-0.4
		c-0.5-0.1-1-0.2-1.5-0.2c-1.4,0-2.4,0.4-3.1,1.3c-0.7,0.8-1,1.9-1,3.3c0,1.3,0.3,2.4,1,3.3c0.7,0.8,1.7,1.3,3.1,1.3
		c0.5,0,1-0.1,1.5-0.2c0.5-0.1,1-0.2,1.4-0.4l0.3,1.8c-0.4,0.2-1,0.4-1.6,0.5c-0.7,0.1-1.3,0.2-1.8,0.2c-1,0-1.9-0.2-2.7-0.5
		c-0.8-0.3-1.4-0.8-1.9-1.4c-0.5-0.6-0.9-1.3-1.2-2.1C63.1,34.6,63,33.8,63,33c0-0.9,0.1-1.7,0.4-2.5c0.3-0.8,0.6-1.5,1.2-2.1
		c0.5-0.6,1.2-1.1,1.9-1.4C67.2,26.7,68.1,26.5,69.2,26.5z"/>
	<path class="st0" d="M75.5,39.1V21h2.3v11.6l4.9-5.8h2.7l-5.2,6.1l5.6,6.3H83L77.8,33v6.1H75.5z"/>
</g>
<rect x="41.9" y="19.3" class="st0" width="2.4" height="8"/>
<rect x="75.5" y="18.6" class="st0" width="2.3" height="8"/>
<g>
	<path class="st1" d="M41.9,19.3V2.4h9.6v1.9h-7.3v5.8h7V12h-7v7.3H41.9z"/>
	<path class="st1" d="M64.6,7.2v12.2h-2.2v-1.8c-0.4,0.6-1,1.1-1.7,1.5c-0.7,0.4-1.4,0.6-2.3,0.6c-0.8,0-1.4-0.2-2-0.5
		c-0.5-0.3-1-0.8-1.3-1.3c-0.3-0.5-0.6-1.2-0.7-1.9c-0.2-0.7-0.2-1.5-0.2-2.3V7.2h2.3v6.3c0,0.6,0,1.2,0.1,1.7
		c0.1,0.5,0.2,1,0.4,1.3c0.2,0.4,0.5,0.7,0.8,0.9c0.4,0.2,0.8,0.3,1.3,0.3c0.7,0,1.3-0.2,1.8-0.5c0.5-0.4,0.9-0.7,1.3-1.1V7.2H64.6z
		"/>
</g>
<g>
	<path class="st2" d="M77.7,56.8c-0.1,0.7-0.2,1.3-0.5,2c-0.2,0.6-0.5,1.3-0.9,1.9c-0.4,0.6-0.9,1.3-1.6,2L73,61.4
		c0.9-1,1.5-2,1.9-3c0.4-1,0.5-2.1,0.5-3.3V41.5h2.4v13.2C77.8,55.5,77.7,56.2,77.7,56.8z"/>
	<path class="st2" d="M86.4,46c0.8,0,1.5,0.1,2.1,0.4c0.6,0.3,1.1,0.6,1.5,1.1c0.4,0.4,0.7,1,0.9,1.6c0.2,0.6,0.3,1.3,0.3,2
		c0,0.7-0.1,1.4-0.3,2.1h-7.8c0,0.6,0.1,1.1,0.3,1.6c0.2,0.5,0.4,0.9,0.7,1.2c0.3,0.4,0.7,0.6,1.2,0.8c0.5,0.2,1.1,0.3,1.8,0.3
		c0.7,0,1.3-0.1,1.9-0.2c0.6-0.1,1.1-0.3,1.6-0.5l0.3,1.7c-0.5,0.3-1.2,0.5-1.9,0.6c-0.7,0.1-1.5,0.2-2.2,0.2c-1,0-1.9-0.2-2.7-0.5
		c-0.8-0.3-1.4-0.8-1.9-1.4c-0.5-0.6-0.9-1.2-1.1-2c-0.2-0.8-0.4-1.6-0.4-2.5c0-0.9,0.1-1.7,0.4-2.5c0.3-0.8,0.6-1.5,1.1-2.1
		c0.5-0.6,1.1-1.1,1.8-1.4C84.7,46.2,85.5,46,86.4,46z M86.3,47.8c-0.5,0-0.9,0.1-1.3,0.3c-0.4,0.2-0.7,0.4-1,0.8
		c-0.3,0.3-0.5,0.7-0.6,1.1c-0.2,0.4-0.2,0.9-0.3,1.4h5.8c0.1-0.5,0-0.9,0-1.4c-0.1-0.4-0.2-0.8-0.4-1.1c-0.2-0.3-0.5-0.6-0.8-0.8
		C87.3,47.9,86.8,47.8,86.3,47.8z"/>
	<path class="st2" d="M94.1,58.6V46.3h2.2v1.8c0.5-0.7,1-1.2,1.7-1.5c0.7-0.4,1.4-0.5,2.3-0.5c0.8,0,1.4,0.2,2,0.5
		c0.5,0.3,1,0.8,1.4,1.3c0.4,0.6,0.6,1.2,0.8,1.9c0.2,0.7,0.2,1.5,0.2,2.3v6.5h-2.3v-6.4c0-0.6-0.1-1.2-0.2-1.7
		c-0.1-0.5-0.3-1-0.5-1.3c-0.2-0.4-0.5-0.7-0.9-0.9c-0.4-0.2-0.8-0.3-1.3-0.3c-0.7,0-1.3,0.2-1.8,0.5c-0.5,0.4-0.9,0.7-1.2,1.1v9
		H94.1z"/>
</g>
<rect x="75.4" y="37.9" class="st0" width="2.4" height="3.6"/>
<rect x="75.5" y="1.4" class="st1" width="2.3" height="17.9"/>
<rect x="68.4" y="1.4" class="st1" width="2.3" height="17.9"/>
<g>
	<g>
		<path class="st3" d="M7.2,40l-0.1,0.5l0,0.5l0,0.5c0,0.2,0,0.4,0,0.5l0,1.1c0,0.2,0,0.4,0,0.5l0,0.5l0,0.5l0.1,0.5l0.1,0.5
			c0,0.2,0,0.4,0.1,0.5l0.2,1.1c0,0.2,0.1,0.4,0.1,0.5l0.1,0.5l-5,1.1L2.5,49c0-0.2-0.1-0.4-0.1-0.6l-0.2-1.3c0-0.2-0.1-0.4-0.1-0.6
			l-0.1-0.6L2,45.3l0-0.6L2,44c0-0.2,0-0.4,0-0.6l0-1.3c0-0.2,0-0.4,0-0.6l0-0.6l0-0.6l0.1-0.6L7.2,40z"/>
	</g>
	<g>
		<path class="st4" d="M17.3,64.5l0.4,0.3c0.1,0.1,0.3,0.2,0.4,0.3l0.9,0.6c0.6,0.4,1.2,0.8,1.8,1.2c1.2,0.7,2.5,1.4,3.9,1.9
			l-1.9,4.7c-1.6-0.6-3.1-1.4-4.6-2.3c-0.7-0.4-1.4-0.9-2.1-1.4l-1-0.8c-0.2-0.1-0.3-0.3-0.5-0.4l-0.5-0.4L17.3,64.5z"/>
	</g>
	<g>
		<path class="st5" d="M11.7,27.2c-1.6,2.4-2.8,5-3.6,7.8l-4.9-1.4c0.9-3.3,2.4-6.4,4.3-9.2L11.7,27.2z"/>
	</g>
	<g>
		<path class="st6" d="M30.1,70.5c1.4,0.3,2.8,0.4,4.3,0.5c1.4,0,2.9,0,4.3-0.2l0.6,5.1c-1.7,0.2-3.4,0.3-5.1,0.2
			c-1.7-0.1-3.4-0.2-5.1-0.5L30.1,70.5z"/>
		<path class="st6" d="M30.1,70.5c1.4,0.3,2.8,0.4,4.3,0.5c1.4,0,2.9,0,4.3-0.2l0.6,5.1c-1.7,0.2-3.4,0.3-5.1,0.2
			c-1.7-0.1-3.4-0.2-5.1-0.5L30.1,70.5z"/>
	</g>
	<g>
		<path class="st7" d="M9.3,53.7l0.2,0.5c0.1,0.2,0.1,0.3,0.2,0.5l0.4,0.9c0.1,0.2,0.2,0.3,0.2,0.5l0.2,0.5l0.2,0.5l0.3,0.4l0.3,0.4
			c0.1,0.1,0.2,0.3,0.3,0.4l0.6,0.8c0.1,0.1,0.2,0.3,0.3,0.4l0.3,0.4l0.3,0.4l0.3,0.4L9.6,64l-0.4-0.5L8.8,63l-0.4-0.5
			c-0.1-0.2-0.2-0.3-0.4-0.5l-0.7-1c-0.1-0.2-0.2-0.3-0.3-0.5L6.8,60l-0.3-0.5L6.2,59l-0.3-0.5c-0.1-0.2-0.2-0.4-0.3-0.5L5,56.8
			c-0.1-0.2-0.2-0.4-0.2-0.6l-0.2-0.6L9.3,53.7z"/>
	</g>
	<g>
		<path class="st8" d="M63.6,44.6c-0.1,1.9-0.4,3.8-0.9,5.6c0,0.1-0.1,0.3-0.1,0.4L62.4,51c-0.1,0.3-0.2,0.5-0.2,0.8l-0.3,0.8
			l-0.1,0.4l-0.2,0.4l-0.3,0.8c-0.1,0.3-0.2,0.5-0.4,0.8l-0.2,0.4c-0.1,0.1-0.1,0.3-0.2,0.4l-0.4,0.7c-1.1,1.9-2.4,3.8-3.8,5.4
			c-0.4,0.4-0.8,0.8-1.1,1.2c-0.2,0.2-0.4,0.4-0.6,0.6c-0.2,0.2-0.4,0.4-0.6,0.6c-0.8,0.7-1.7,1.4-2.6,2c-1.3,0.9-2.6,1.7-4.1,2.3
			l2.1,4.6c1.7-0.8,3.3-1.7,4.8-2.7c1.1-0.7,2.1-1.5,3.1-2.4c0.2-0.2,0.5-0.4,0.7-0.7c0.2-0.2,0.5-0.4,0.7-0.7
			c0.5-0.5,0.9-0.9,1.3-1.4c1.7-1.9,3.3-4.1,4.5-6.3l0.5-0.9c0.1-0.1,0.1-0.3,0.2-0.4l0.2-0.4c0.1-0.3,0.3-0.6,0.4-0.9l0.4-0.9
			l0.2-0.5l0.2-0.5l0.3-0.9c0.1-0.3,0.2-0.6,0.3-0.9l0.1-0.5c0-0.2,0.1-0.3,0.1-0.5c0.6-2.3,1-4.6,1.1-6.9H63.6z"/>
		<path class="st8" d="M33.6,9.4c-2.4,0.1-4.9,0.5-7.2,1.2l-0.2,0.1l-0.2,0.1l-0.5,0.1c-0.3,0.1-0.6,0.2-0.9,0.3l-0.9,0.3
			c-0.3,0.1-0.6,0.2-0.9,0.4c-0.6,0.3-1.2,0.5-1.8,0.8L20,13.1l-0.9,0.5c-0.6,0.3-1.1,0.7-1.7,1c-0.3,0.2-0.5,0.4-0.8,0.5l-0.8,0.6
			c-1,0.8-2.1,1.6-3,2.5l3.4,3.7c0.8-0.8,1.7-1.4,2.6-2.1l0.7-0.5c0.2-0.2,0.5-0.3,0.7-0.5c0.5-0.3,0.9-0.6,1.4-0.8l0.7-0.4l0.7-0.4
			c0.5-0.3,1-0.5,1.5-0.7c0.3-0.1,0.5-0.2,0.8-0.3l0.8-0.3c0.3-0.1,0.5-0.2,0.8-0.2l0.4-0.1l0.2-0.1l0.2-0.1c1.9-0.5,3.9-0.9,5.9-1
			V9.4z"/>
	</g>
</g>
</svg>
